<?xml version="1.0" encoding="UTF-8" standalone="no"?>
<svg
   xmlns:dc="http://purl.org/dc/elements/1.1/"
   xmlns:cc="http://creativecommons.org/ns#"
   xmlns:rdf="http://www.w3.org/1999/02/22-rdf-syntax-ns#"
   xmlns:svg="http://www.w3.org/2000/svg"
   xmlns="http://www.w3.org/2000/svg"
   id="attribute-fire"
   version="1.1"
   viewBox="0 0 256 256"
   height="256"
   width="256">
  <circle
     r="128"
     cy="128"
     cx="128"
     id="background"
     style="display:inline;fill:#e60012;fill-opacity:1;stroke-linecap:round;stroke-linejoin:round" />
  <path
     d="m 248.11872,142.35784 c -7.20607,-11.62879 -6.36096,-20.74782 -5.80838,-33.58757 1.12511,-26.142797 -9.86992,-29.10861 -13.13198,-34.471459 1.73469,9.960523 6.15435,20.547539 -1.6415,28.284269 -6.4433,-67.459577 -75.91065,-83.786677 -86.49431,-82.327431 28.02852,17.999935 46.29003,18.361756 56.316,76.645325 6.17442,22.356756 16.91359,41.532506 50.76017,45.456866 z M 139.28571,249.75 C 135.44965,216.52427 124.03348,199.43973 86.607143,191.89286 48.83149,182.84105 41.602709,159.2459 31.964286,136 28.01204,175.95546 32.662674,218.38055 98.75,226.89286 c -6.80546,4.53589 -17.84495,5.45052 -32.5,-2.14286 11.05045,15.59865 25.92965,19.71105 42.67857,18.21429 12.28329,0.3653 24.8792,0.97473 30.35714,6.78571 z M 100.25977,3.2050781 A 128,128 0 0 0 76.875,10.822266 C 76.458251,52.283716 92.606058,46.021292 89.337891,67.751953 87.732983,78.423292 74.284912,77.04508 69.611328,70.880859 64.921791,64.695595 63.778237,49.157862 63.386719,40.837891 47.445231,75.037117 61.181571,105.57477 98.123047,131.00391 c 15.421523,10.6156 3.322993,22.42128 -7.400391,19.77929 -9.192126,-2.26473 -14.237305,-11.21787 -20.011718,-28.375 -6.930208,62.35171 44.937112,65.23907 68.761722,81.83594 9.13593,5.00507 25.11842,20.95514 31.67773,44.13086 a 128,128 0 0 0 22.4668,-10.63477 c 22.19399,-47.30759 17.58452,-95.7827 -11.03125,-114.19726 27.12663,46.50595 -18.00335,65.7301 -20.70899,29.54687 9.54768,-44.5177 6.43911,-73.186447 -26.01172,-101.519528 C 117.49191,36.83235 107.59618,20.29132 100.25977,3.2050781 Z"
     style="fill:#ffffff;fill-opacity:1"
     id="foreground" />
</svg>
