<?xml version="1.0" encoding="UTF-8" standalone="no"?>
<svg
   xmlns:cc="http://creativecommons.org/ns#"
   xmlns:rdf="http://www.w3.org/1999/02/22-rdf-syntax-ns#"
   xmlns:svg="http://www.w3.org/2000/svg"
   xmlns="http://www.w3.org/2000/svg"
   id="attribute-void"
   version="1.1"
   viewBox="0 0 256 256"
   height="256"
   width="256">
  <circle
     r="128"
     cy="128"
     cx="128"
     id="background"
     style="display:inline;opacity:1;fill:#9fa0a0;fill-opacity:1;stroke-linecap:round;stroke-linejoin:round" />
  <path
     d="m 212.47785,85.064293 c -0.75504,0.002 -1.51466,0.03637 -2.27724,0.104027 0.19703,1.587757 0.38888,3.175773 0.57623,4.76375 a 21.96623,21.96623 0 0 0 -4.13213,0.852877 c -0.50069,-1.483931 -1.00239,-2.96731 -1.50516,-4.450489 -2.83016,0.96162 -5.44401,2.380933 -7.76475,4.158657 0.94028,1.17907 1.87696,2.360613 2.81156,3.543882 a 21.96623,21.96623 0 0 0 -3.17303,2.833242 c -1.10694,-0.99709 -2.21429,-1.993393 -3.32238,-2.989257 -1.95967,2.155742 -3.58207,4.613052 -4.79004,7.273008 1.37039,0.60678 2.73933,1.21767 4.10704,1.83083 a 21.96623,21.96623 0 0 0 -1.30128,4.02542 c -1.48602,-0.3698 -2.97243,-0.73819 -4.45891,-1.10606 -0.70816,2.85936 -0.9575,5.86407 -0.67167,8.91576 1.58763,-0.20589 3.17536,-0.40645 4.76324,-0.60261 a 21.96623,21.96623 0 0 0 0.87398,4.12682 c -1.48089,0.50815 -2.96169,1.01701 -4.44183,1.52724 0.97464,2.82397 2.40526,5.43074 4.19318,7.74311 1.17452,-0.94529 2.35169,-1.88726 3.53043,-2.8269 a 21.96623,21.96623 0 0 0 2.84954,3.15909 c -0.9925,1.11145 -1.98454,2.22371 -2.9758,3.33629 2.16431,1.95005 4.62885,3.56125 7.29455,4.75739 0.60083,-1.37347 1.20585,-2.74532 1.81307,-4.11613 a 21.96623,21.96623 0 0 0 4.03163,1.28017 l -1.08638,4.468 c 2.8635,0.69509 5.87137,0.93053 8.92438,0.62943 -0.21506,-1.58955 -0.42472,-3.17962 -0.62999,-4.76945 a 21.96623,21.96623 0 0 0 4.12009,-0.89364 c 0.5162,1.47967 1.03343,2.9591 1.5517,4.43796 2.81776,-0.98761 5.41705,-2.43009 7.72101,-4.22816 -0.95099,-1.17084 -1.89833,-2.3443 -2.84367,-3.51939 a 21.96623,21.96623 0 0 0 3.14467,-2.86439 c 1.11669,0.98854 2.23384,1.9765 3.35164,2.9638 1.94038,-2.17285 3.5414,-4.6447 4.7257,-7.31611 -1.3767,-0.59492 -2.75164,-1.19395 -4.12571,-1.79532 a 21.96623,21.96623 0 0 0 1.26145,-4.0364 c 0.49401,0.11761 4.47436,1.0653 4.47421,1.06526 0.68199,-2.8676 0.90363,-5.87821 0.58723,-8.93247 -1.58967,0.22399 -3.17991,0.44264 -4.7699,0.65684 a 21.96623,21.96623 0 0 0 -0.78194,-3.72154 c 1.48834,-0.49368 2.97635,-0.98782 4.46394,-1.4836 -0.94856,-2.83629 -2.35616,-5.457768 -4.12366,-7.786843 -1.18546,0.936708 -2.37341,1.87004 -3.56308,2.801017 a 21.96623,21.96623 0 0 0 -2.81647,-3.186467 c 1.00321,-1.104104 2.00602,-2.208527 3.00798,-3.313778 -2.14713,-1.969262 -4.59728,-3.601953 -7.25145,-4.821713 -0.61369,1.369498 -1.23139,2.736926 -1.85146,4.103698 a 21.96623,21.96623 0 0 0 -4.01873,-1.321916 c 0.37713,-1.485248 0.75341,-2.970833 1.12861,-4.456532 -2.14139,-0.540909 -4.36529,-0.824543 -6.6304,-0.818403 z m 0.65312,18.550557 a 8.1305044,8.1305044 0 0 1 8.13898,8.1224 8.1305044,8.1305044 0 0 1 -8.12241,8.1385 8.1305044,8.1305044 0 0 1 -8.1385,-8.12193 8.1305044,8.1305044 0 0 1 8.12193,-8.13897 z M 152.55503,14.171423 c -1.2755,0.0034 -2.55873,0.06145 -3.84697,0.175732 0.33285,2.682217 0.65695,5.36487 0.97344,8.047458 a 37.107799,37.107799 0 0 0 -6.98045,1.440775 c -0.84583,-2.506822 -1.69336,-5.012711 -2.5427,-7.518262 -4.78102,1.624475 -9.19662,4.022136 -13.11706,7.025265 1.5884,1.991816 3.17076,3.98781 4.74958,5.98672 a 37.107799,37.107799 0 0 0 -5.36022,4.786228 c -1.86998,-1.684396 -3.74064,-3.367462 -5.61255,-5.049786 -3.31049,3.641719 -6.05123,7.792881 -8.09185,12.286366 2.31502,1.025039 4.62757,2.05703 6.93806,3.092847 a 37.107799,37.107799 0 0 0 -2.19827,6.800188 c -2.51036,-0.6247 -5.02137,-1.247025 -7.53248,-1.868487 -1.19631,4.830365 -1.61751,9.906253 -1.13466,15.061506 2.682,-0.347825 5.36416,-0.686617 8.04659,-1.018006 a 37.107799,37.107799 0 0 0 1.47643,6.971494 c -2.50169,0.858413 -5.00322,1.718049 -7.50363,2.579973 1.64645,4.770568 4.06323,9.174222 7.08358,13.080524 1.98413,-1.596883 3.97273,-3.18816 5.964,-4.7755 a 37.107799,37.107799 0 0 0 4.81376,5.336686 c -1.67664,1.877586 -3.35251,3.75654 -5.02706,5.636037 3.65619,3.294229 7.81957,6.016043 12.32276,8.036699 1.01499,-2.320223 2.03705,-4.637706 3.06285,-6.953426 a 37.107799,37.107799 0 0 0 6.81068,2.162602 l -1.83524,7.547854 c 4.83735,1.17422 9.91858,1.57195 15.07604,1.06331 -0.3633,-2.68524 -0.71746,-5.371368 -1.06423,-8.057079 a 37.107799,37.107799 0 0 0 6.96012,-1.509641 c 0.872,2.499594 1.74578,4.998816 2.62129,7.4971 4.76009,-1.66839 9.15109,-4.105201 13.04319,-7.142696 -1.60651,-1.977906 -3.20685,-3.960257 -4.80385,-5.945332 a 37.107799,37.107799 0 0 0 5.31235,-4.838858 c 1.88642,1.669953 3.77364,3.338927 5.66195,5.006782 3.27791,-3.670624 5.98254,-7.846349 7.98318,-12.35919 -2.32569,-1.005023 -4.64837,-2.016959 -6.96961,-3.032849 a 37.107799,37.107799 0 0 0 2.13098,-6.818753 c 0.83454,0.198691 7.5586,1.799631 7.55835,1.799573 1.15207,-4.844265 1.5265,-9.930132 0.992,-15.089723 -2.68546,0.37838 -5.37186,0.747758 -8.05785,1.109592 a 37.107799,37.107799 0 0 0 -1.32094,-6.286831 c 2.51428,-0.833977 5.02798,-1.668741 7.54099,-2.506264 -1.60242,-4.791376 -3.98029,-9.219861 -6.96615,-13.154395 -2.0026,1.582393 -4.00943,3.159082 -6.01914,4.731791 a 37.107799,37.107799 0 0 0 -4.7579,-5.382934 c 1.69472,-1.865176 3.38878,-3.730891 5.08142,-5.598003 -3.62718,-3.326696 -7.76625,-6.084821 -12.24996,-8.145374 -1.03672,2.313507 -2.0802,4.623519 -3.1277,6.932423 a 37.107799,37.107799 0 0 0 -6.78888,-2.233129 c 0.63709,-2.509046 1.27274,-5.018662 1.90658,-7.528469 -3.61748,-0.913766 -7.37435,-1.39291 -11.20082,-1.382538 z m 1.10332,31.337655 A 13.734953,13.734953 0 0 1 167.40762,59.23035 13.734953,13.734953 0 0 1 153.68634,72.978805 13.734953,13.734953 0 0 1 139.93789,59.258343 13.734953,13.734953 0 0 1 153.65835,45.509078 Z m -65.859522,9.629594 c -3.073899,0.0052 -6.166585,0.141834 -9.271484,0.414062 0.795561,6.464868 1.570038,12.930763 2.326172,19.396485 a 89.428574,89.428574 0 0 0 -16.826172,3.455078 c -2.032264,-6.043432 -4.068616,-12.084621 -6.109375,-18.125 -11.526037,3.903185 -22.1734,9.670625 -31.628907,16.898437 3.823137,4.804106 7.631648,9.618269 11.431641,14.439454 A 89.428574,89.428574 0 0 0 24.791016,103.13867 c -3.242443,-2.92664 -6.487757,-5.849587 -9.732422,-8.773436 A 117.89847,117.89847 0 0 0 10.101562,128 117.89847,117.89847 0 0 0 128,245.89844 117.89847,117.89847 0 0 0 150.39648,243.6543 c -2.21751,-2.74876 -4.43949,-5.49417 -6.65039,-8.24805 a 89.428574,89.428574 0 0 0 12.81446,-11.64844 c 4.54207,4.02916 9.08614,8.05597 13.63281,12.08008 7.90865,-8.83803 14.43698,-18.89474 19.26953,-29.76562 -5.60237,-2.42778 -11.19747,-4.87222 -16.78906,-7.32618 a 89.428574,89.428574 0 0 0 5.15234,-16.42773 c 2.01074,0.48089 18.21155,4.35561 18.21094,4.35547 2.78833,-11.67168 3.7032,-23.92753 2.42773,-36.36328 -6.47281,0.90529 -12.94783,1.78888 -19.42187,2.65429 A 89.428574,89.428574 0 0 0 175.875,137.81055 c 6.06138,-2.00368 12.12135,-4.00926 18.17969,-6.02149 -3.85,-11.55099 -9.56975,-22.22933 -16.75586,-31.71875 -4.83014,3.80859 -9.67037,7.60343 -14.51758,11.38867 A 89.428574,89.428574 0 0 0 151.32812,98.474609 c 4.0888,-4.490849 8.17597,-8.982999 12.25977,-13.478515 -8.73317,-8.026137 -18.70144,-14.683285 -29.50195,-19.660156 -2.50416,5.572924 -5.02459,11.13741 -7.55469,16.699218 a 89.428574,89.428574 0 0 0 -16.35547,-5.398437 c 1.54152,-6.045152 3.07956,-12.091678 4.61328,-18.138672 -8.71577,-2.211027 -17.768533,-3.374973 -26.990232,-3.359375 z m 2.582031,75.525388 A 33.100784,33.100784 0 0 1 123.48242,163.76562 33.100784,33.100784 0 0 1 90.380859,196.86523 33.100784,33.100784 0 0 1 57.28125,163.76562 33.100784,33.100784 0 0 1 90.380859,130.66406 Z"
     style="display:inline;opacity:1;fill:#ffffff;fill-opacity:1"
     id="foreground" />
</svg>
