<?xml version="1.0" encoding="UTF-8" standalone="no"?>
<svg
   xmlns:dc="http://purl.org/dc/elements/1.1/"
   xmlns:cc="http://creativecommons.org/ns#"
   xmlns:rdf="http://www.w3.org/1999/02/22-rdf-syntax-ns#"
   xmlns:svg="http://www.w3.org/2000/svg"
   xmlns="http://www.w3.org/2000/svg"
   id="attribute-water"
   version="1.1"
   viewBox="0 0 256 256"
   height="256"
   width="256">
  <circle
     r="128"
     cy="128"
     cx="128"
     id="background"
     style="display:inline;fill:#00a0e9;fill-opacity:1;stroke-linecap:round;stroke-linejoin:round" />
  <path
     id="foreground"
     d="M 106.25,19.214844 47.576172,154.30469 c -3.68014,8.20087 -5.595847,17.08357 -5.623047,26.07226 5e-4,35.43126 28.865635,64.1538 64.296875,64.1543 35.43124,-5e-4 64.29442,-28.72305 64.29492,-64.1543 -0.007,-2.45647 -0.17004,-4.90314 -0.45703,-7.33203 1.04535,0.0757 2.09781,0.12694 3.16211,0.12696 23.8387,-3.4e-4 43.25747,-19.32537 43.25781,-43.16407 -0.0183,-6.04775 -1.30714,-12.0253 -3.7832,-17.54297 L 173.25,21.574219 140.26172,97.525391 Z m -23.5,113.460936 24.58008,56.5957 c 1.54176,3.43566 2.34407,7.15615 2.35547,10.92188 -2.1e-4,14.84355 -12.092004,26.87674 -26.93555,26.87695 -14.843546,-2.1e-4 -26.937288,-12.0334 -26.9375,-26.87695 0.0114,-3.76573 0.813711,-7.48622 2.355469,-10.92188 z"
     style="display:inline;opacity:1;fill:#ffffff;fill-opacity:1" />
</svg>
