<?xml version="1.0" encoding="UTF-8" standalone="no"?>
<svg
   xmlns:dc="http://purl.org/dc/elements/1.1/"
   xmlns:cc="http://creativecommons.org/ns#"
   xmlns:rdf="http://www.w3.org/1999/02/22-rdf-syntax-ns#"
   xmlns:svg="http://www.w3.org/2000/svg"
   xmlns="http://www.w3.org/2000/svg"
   id="attribute-moon"
   version="1.1"
   viewBox="0 0 256 256"
   height="256"
   width="256">
  <circle
     r="128"
     cy="128"
     cx="128"
     id="background"
     style="fill:#eda20d;fill-opacity:1;stroke-linecap:round;stroke-linejoin:round" />
  <path
     d="m 158.19967,140.93918 c -0.34631,0.245 -36.95662,-27.03822 -37.38369,-27.05087 -0.42708,-0.0127 -37.114366,27.05067 -37.460561,26.81467 -0.346194,-0.236 15.246426,-42.728504 15.122582,-43.137021 C 98.354158,97.157442 63.147802,74.480815 63.269866,74.07496 63.39193,73.669105 105.68709,73.070253 106.03015,72.819766 106.3732,72.56928 119.4346,31.473374 119.85904,31.469329 c 0.42444,-0.004 14.95278,41.271563 15.29581,41.520668 0.34303,0.249106 42.28255,-0.200455 42.41888,0.195368 0.13634,0.395824 -35.87177,25.432913 -36.00269,25.840867 -0.13093,0.407954 16.97494,41.667948 16.62863,41.912948 z M 70.460475,-12.022374 A 99.544144,100.94996 0 0 0 -29.084443,88.926844 99.544144,100.94996 0 0 0 70.460475,189.87606 99.544144,100.94996 0 0 0 149.5718,149.99129 76.211189,76.211189 0 0 1 104.78861,164.65145 76.211189,76.211189 0 0 1 28.577667,88.438564 76.211189,76.211189 0 0 1 104.78861,12.227626 76.211189,76.211189 0 0 1 148.01321,25.684657 99.544144,100.94996 0 0 0 70.460475,-12.022374 Z"
     style="display:inline;fill:#ffffff;fill-opacity:1"
     transform="translate(57.967255,41.598546)"
     id="foreground" />
</svg>
