<?xml version="1.0" encoding="UTF-8" standalone="no"?>
<svg
   xmlns:dc="http://purl.org/dc/elements/1.1/"
   xmlns:cc="http://creativecommons.org/ns#"
   xmlns:rdf="http://www.w3.org/1999/02/22-rdf-syntax-ns#"
   xmlns:svg="http://www.w3.org/2000/svg"
   xmlns="http://www.w3.org/2000/svg"
   id="attribute-light"
   version="1.1"
   viewBox="0 0 256 256"
   height="256"
   width="256">
  <circle
     r="128"
     cy="128"
     cx="128"
     id="background"
     style="display:inline;fill:#ffe000;fill-opacity:1;stroke-linecap:round;stroke-linejoin:round" />
  <path
     d="M 146.70312,1.5332031 C 142.53692,39.21398 133.40541,83.922437 113.39062,107.33008 L 67.15625,71.755859 102.16211,117.56445 C 77.95782,135.01711 36.804892,143.3979 1.578125,147.41602 a 128,128 0 0 0 1.5976562,8.1875 c 36.3416398,4.61041 78.5918458,13.9227 102.0644488,32.72851 l -35.226558,45.78125 45.789058,-34.99219 c 10.77915,14.02037 18.16424,34.50825 23.24805,56.31641 a 128,128 0 0 0 11.10742,-1.39062 V 2.0566406 a 128,128 0 0 0 -3.45508,-0.5234375 z m 3.48438,0.5273438 V 254.03906 a 128,128 0 0 0 12.07617,-2.71094 c 5.04147,-20.26025 12.17831,-39.06873 22.2793,-52.20703 l 30.05469,22.96875 a 128,128 0 0 0 3.76172,-3.53711 l -23.25391,-30.2207 c 13.74686,-11.01372 33.94608,-18.75311 55.61523,-24.2168 a 128,128 0 0 0 4.66797,-23.87304 c -21.88232,-4.9594 -42.62435,-12.16421 -57.20508,-22.67774 L 233.18945,71.755859 186.95508,107.33008 C 167.13538,84.150593 157.98789,40.083585 153.76562,2.6367188 A 128,128 0 0 0 150.1875,2.0605469 Z M 83.210938,8.1699219 A 128,128 0 0 0 81.902344,8.6054688 V 107.54883 c 0.05147,-6.65919 0.818037,-34.024805 9.789062,-45.693361 L 104.73828,71.826172 94.701172,58.78125 C 108.05987,48.07851 142.76367,48.167969 142.76367,48.167969 c 0,0 -33.33457,0.436548 -47.185545,-9.550781 L 105.55273,25.564453 92.378906,35.701172 C 87.131336,29.564047 84.521575,18.296881 83.210938,8.1699219 Z m -1.316407,0.4375 A 128,128 0 0 0 80.445312,9.2246094 C 79.090652,19.070752 76.483838,29.77655 71.417969,35.701172 L 58.244141,25.564453 68.21875,38.617188 c -9.82721,7.085972 -29.413466,8.918346 -39.992188,9.388671 a 128,128 0 0 0 -0.292968,0.384766 c 10.804708,0.571538 31.51815,2.664066 41.162109,10.390625 L 59.058594,71.826172 72.105469,61.855469 c 8.971025,11.668556 9.737593,39.034171 9.789062,45.693361 z"
     style="display:inline;fill:#ffffff;fill-opacity:1"
     id="foreground" />
</svg>
