<?xml version="1.0" encoding="UTF-8" standalone="no"?>
<svg
   xmlns:dc="http://purl.org/dc/elements/1.1/"
   xmlns:cc="http://creativecommons.org/ns#"
   xmlns:rdf="http://www.w3.org/1999/02/22-rdf-syntax-ns#"
   xmlns:svg="http://www.w3.org/2000/svg"
   xmlns="http://www.w3.org/2000/svg"
   id="svg8"
   version="1.1"
   viewBox="0 0 256 256"
   height="256"
   width="256">
  <circle
     r="128"
     cy="128"
     cx="128"
     id="background"
     style="display:inline;fill:#000000;fill-opacity:1;stroke-linecap:round;stroke-linejoin:round" />
  <path
     d="m 111.24235,13.580243 6.84128,7.059576 4.15814,6.398215 -0.94562,8.445929 -3.49749,8.597762 -6.61666,-6.212427 -4.06405,-6.646529 0.88332,-9.313173 z m -25.642702,8.693708 7.681335,3.79647 3.644095,4.752657 1.85965,8.79671 -0.451558,11.412644 -8.31163,-4.231704 -7.937102,-7.553673 1.385386,-10.426621 z m -27.363835,15.895686 11.072029,2.061221 6.475507,3.818001 2.699996,6.704018 -0.117726,10.477885 -7.504015,-1.629193 -7.446466,-4.511838 -3.664434,-7.382522 z m 6.139333,40.957824 -3.201675,-11.803052 -5.045476,-8.144397 -7.549749,-0.519821 -9.188837,1.027845 1.313007,7.408228 2.609466,8.044594 9.473827,2.841482 z m -12.422882,17.494629 -2.978839,-7.772066 -6.851368,-6.236867 -8.353381,-2.041763 -9.197636,1.746565 4.865711,10.150412 5.486916,5.378443 9.899887,0.863692 z m -6.927673,22.243 -6.165892,4.15516 -10.11513,-0.64485 -5.197218,-4.83151 -7.531746,-7.93919 8.691608,-3.67715 7.12567,0.20856 9.110498,5.02782 z m -30.996628,25.57965 7.059576,-6.84128 6.398215,-4.15814 8.445929,0.94561 8.597762,3.49749 -6.212427,6.61667 -6.646529,4.06405 -9.313173,-0.88333 z m 8.693708,25.6427 3.79647,-7.68134 4.752657,-3.64409 8.79671,-1.85965 11.412644,0.45156 -4.231704,8.31163 -7.553673,7.9371 -10.426621,-1.38539 z m 15.895686,27.36383 2.061221,-11.07203 3.818001,-6.4755 6.704018,-2.7 10.477885,0.11773 -1.629193,7.50401 -4.511838,7.44647 -7.382522,3.66443 z m 40.957824,-6.13933 -11.803052,3.20167 -8.144397,5.04548 -0.519821,7.54975 1.027845,9.18884 7.408228,-1.31301 8.044594,-2.60947 2.841482,-9.47382 z m 17.494629,12.42288 -7.772066,2.97884 -6.236867,6.85137 -2.041763,8.35338 1.746565,9.19763 10.150412,-4.86571 5.378443,-5.48691 0.863692,-9.89989 z m 22.243,6.92767 4.15516,6.1659 -0.64485,10.11513 -4.83151,5.19721 -7.93919,7.53175 -3.67715,-8.69161 0.20856,-7.12567 5.02782,-9.1105 z m 27.10064,31.75716 -6.84128,-7.05957 -4.15814,-6.39822 0.94561,-8.44593 3.49749,-8.59776 6.61667,6.21243 4.06405,6.64653 -0.88333,9.31317 z m 25.6427,-8.6937 -7.68134,-3.79647 -3.64409,-4.75266 -1.85965,-8.79671 0.45156,-11.41265 8.31163,4.23171 7.9371,7.55367 -1.38539,10.42662 z m 27.36383,-15.89569 -11.07203,-2.06122 -6.4755,-3.818 -2.7,-6.70402 0.11773,-10.47788 7.50401,1.62919 7.44647,4.51184 3.66443,7.38252 z m -6.13933,-40.95782 3.20167,11.80305 5.04548,8.1444 7.54975,0.51982 9.18884,-1.02785 -1.31301,-7.40823 -2.60947,-8.04459 -9.47382,-2.84148 z m 12.42288,-17.49463 2.97884,7.77206 6.85137,6.23687 8.35338,2.04176 9.19763,-1.74656 -4.86571,-10.15041 -5.48691,-5.37845 -9.89989,-0.86369 z m 6.92767,-22.243 6.1659,-4.15516 10.11513,0.64485 5.19721,4.83151 7.53175,7.93919 -8.69161,3.67715 -7.12567,-0.20856 -9.1105,-5.02782 z m 29.3408,-27.85638 -7.05958,6.84128 -6.39821,4.15814 -8.44593,-0.94561 -8.59776,-3.49749 6.21242,-6.61667 6.64653,-4.06405 9.31318,0.88333 z m -8.69371,-25.642697 -3.79647,7.681335 -4.75266,3.644095 -8.79671,1.85965 -11.41264,-0.451558 4.2317,-8.31163 7.55368,-7.937102 10.42662,1.385386 z m -15.89569,-27.363835 -2.06122,11.072029 -3.818,6.475507 -6.70401,2.699996 -10.47789,-0.117726 1.62919,-7.504015 4.51184,-7.446466 7.38252,-3.664434 z m -40.95782,6.139333 11.80305,-3.201675 8.1444,-5.045476 0.51982,-7.549749 -1.02784,-9.188837 -7.40823,1.313007 -8.0446,2.609466 -2.84148,9.473827 z m -17.49463,-12.422882 7.77207,-2.978839 6.23686,-6.851368 2.04177,-8.353381 -1.74657,-9.197636 -10.15041,4.865711 -5.37844,5.486916 -0.86369,9.899887 z m -22.243,-6.927673 -4.15515,-6.165892 0.64484,-10.11513 4.83152,-5.197218 7.93918,-7.531746 3.67715,8.691608 -0.20856,7.12567 -5.02782,9.110498 z m -1.38837,80.211804 8.67243,-27.090022 49.62608,-10.017336 -24.96746,36.122928 z m -11.25887,-0.16891 -5.88817,-34.917966 -50.290925,-6.622985 24.364954,41.655031 z"
     style="fill:#ffffff;fill-opacity:1"
     id="foreground" />
</svg>
