<?xml version="1.0" encoding="UTF-8" standalone="no"?>
<svg
   xmlns:dc="http://purl.org/dc/elements/1.1/"
   xmlns:cc="http://creativecommons.org/ns#"
   xmlns:rdf="http://www.w3.org/1999/02/22-rdf-syntax-ns#"
   xmlns:svg="http://www.w3.org/2000/svg"
   xmlns="http://www.w3.org/2000/svg"
   width="256"
   height="256"
   viewBox="0 0 256 256"
   version="1.1"
   id="rest">
  <path
     id="background"
     d="M 191.05535,5.0546875 2.8780927,87.745359 c -2.44043308,1.09231 -3.56439465,3.98742 -2.44021577,6.490654 L 58.497496,226.28035 c 1.123272,2.5078 4.012421,3.63403 6.420991,2.54172 L 152.29255,190.4056 140.2706,172.73493 c -2.22873,-3.2786 0.12787,-7.71325 4.09224,-7.70082 l 23.73339,0.0637 C 143.52795,125.29954 86.16588,128.407 86.16588,128.407 c -2.831782,0.16876 -5.221316,-2.08145 -5.222778,-4.91826 V 66.392477 c 7.33e-4,-2.721468 2.206734,-4.927469 4.928201,-4.928202 37.524697,0 69.767307,8.442616 93.906507,26.354727 21.87754,16.233888 36.69834,40.334918 42.66596,71.743528 l 30.62013,-13.46298 c 2.47273,-1.09232 3.5973,-4.01474 2.53775,-6.49065 L 197.47635,7.5327205 Z M 173.90418,95.734775 C 152.97647,80.205709 124.62968,72.185726 90.801493,71.463985 v 47.164235 c 12.951877,-0.19067 68.090437,1.57232 90.102887,49.36162 1.50711,3.27127 -0.88858,7.0018 -4.49033,6.99224 l -22.73221,-0.0637 48.9496,75.05282 52.44912,-79.91533 -40.82178,-0.004 c -0.49993,-8.01215 -0.80061,-10.98038 -3.51509,-21.35443 -2.71448,-15.62489 -16.435,-37.82175 -36.83951,-52.962584 z"
     style="display:inline;fill:#000000;fill-opacity:1" />
</svg>
