<?xml version="1.0" encoding="UTF-8" standalone="no"?>
<svg
   xmlns:dc="http://purl.org/dc/elements/1.1/"
   xmlns:cc="http://creativecommons.org/ns#"
   xmlns:rdf="http://www.w3.org/1999/02/22-rdf-syntax-ns#"
   xmlns:svg="http://www.w3.org/2000/svg"
   xmlns="http://www.w3.org/2000/svg"
   xmlns:xlink="http://www.w3.org/1999/xlink"
   xmlns:sodipodi="http://sodipodi.sourceforge.net/DTD/sodipodi-0.dtd"
   xmlns:inkscape="http://www.inkscape.org/namespaces/inkscape"
   width="256"
   height="256"
   version="1.1"
   id="svg89"
   sodipodi:docname="flag-us-gb.svg"
   inkscape:export-filename="C:\Users\Pro\Documents\Qt\FOWCE\assets\icons\FOWCE\48x48\flag-us-gb.png"
   inkscape:export-xdpi="18"
   inkscape:export-ydpi="18"
   inkscape:version="0.92.4 (5da689c313, 2019-01-14)">
  <metadata
     id="metadata93">
    <rdf:RDF>
      <cc:Work
         rdf:about="">
        <dc:format>image/svg+xml</dc:format>
        <dc:type
           rdf:resource="http://purl.org/dc/dcmitype/StillImage" />
        <dc:title></dc:title>
      </cc:Work>
    </rdf:RDF>
  </metadata>
  <sodipodi:namedview
     pagecolor="#ffffff"
     bordercolor="#666666"
     borderopacity="1"
     objecttolerance="10"
     gridtolerance="10"
     guidetolerance="10"
     inkscape:pageopacity="0"
     inkscape:pageshadow="2"
     inkscape:window-width="1680"
     inkscape:window-height="966"
     id="namedview91"
     showgrid="false"
     inkscape:snap-bbox="true"
     inkscape:snap-bbox-edge-midpoints="false"
     inkscape:bbox-nodes="true"
     inkscape:zoom="1.5229992"
     inkscape:cx="48.936938"
     inkscape:cy="167.85836"
     inkscape:window-x="-8"
     inkscape:window-y="22"
     inkscape:window-maximized="1"
     inkscape:current-layer="svg89">
    <sodipodi:guide
       position="0,0"
       orientation="0,256"
       id="guide4603"
       inkscape:locked="false" />
    <sodipodi:guide
       position="256,0"
       orientation="-256,0"
       id="guide4605"
       inkscape:locked="false" />
    <sodipodi:guide
       position="256,256"
       orientation="0,-256"
       id="guide4607"
       inkscape:locked="false" />
    <sodipodi:guide
       position="0,256"
       orientation="256,0"
       id="guide4609"
       inkscape:locked="false" />
  </sodipodi:namedview>
  <defs
     id="defs47">
    <polygon
       id="pt"
       points="0.16245985,0 -0.16245985,0 0,-0.5 "
       transform="scale(0.0616)"
       style="fill:#ffffff" />
    <g
       id="star">
      <use
         xlink:href="#pt"
         transform="rotate(-144)"
         id="use3"
         x="0"
         y="0"
         width="100%"
         height="100%" />
      <use
         xlink:href="#pt"
         transform="rotate(-72)"
         id="use5"
         x="0"
         y="0"
         width="100%"
         height="100%" />
      <use
         xlink:href="#pt"
         id="use7"
         x="0"
         y="0"
         width="100%"
         height="100%" />
      <use
         xlink:href="#pt"
         transform="rotate(72)"
         id="use9"
         x="0"
         y="0"
         width="100%"
         height="100%" />
      <use
         xlink:href="#pt"
         transform="rotate(144)"
         id="use11"
         x="0"
         y="0"
         width="100%"
         height="100%" />
    </g>
    <g
       id="s5">
      <use
         xlink:href="#star"
         x="-0.252"
         id="use14"
         y="0"
         width="100%"
         height="100%" />
      <use
         xlink:href="#star"
         x="-0.126"
         id="use16"
         y="0"
         width="100%"
         height="100%" />
      <use
         xlink:href="#star"
         id="use18"
         x="0"
         y="0"
         width="100%"
         height="100%" />
      <use
         xlink:href="#star"
         x="0.126"
         id="use20"
         y="0"
         width="100%"
         height="100%" />
      <use
         xlink:href="#star"
         x="0.252"
         id="use22"
         y="0"
         width="100%"
         height="100%" />
    </g>
    <g
       id="s6">
      <use
         xlink:href="#s5"
         x="-0.063000001"
         id="use25"
         y="0"
         width="100%"
         height="100%" />
      <use
         xlink:href="#star"
         x="0.315"
         id="use27"
         y="0"
         width="100%"
         height="100%" />
    </g>
    <g
       id="x4">
      <use
         xlink:href="#s6"
         id="use30"
         x="0"
         y="0"
         width="100%"
         height="100%" />
      <use
         xlink:href="#s5"
         y="0.054000001"
         id="use32"
         x="0"
         width="100%"
         height="100%" />
      <use
         xlink:href="#s6"
         y="0.108"
         id="use34"
         x="0"
         width="100%"
         height="100%" />
      <use
         xlink:href="#s5"
         y="0.162"
         id="use36"
         x="0"
         width="100%"
         height="100%" />
    </g>
    <g
       id="u">
      <use
         xlink:href="#x4"
         y="-0.21600001"
         id="use39"
         x="0"
         width="100%"
         height="100%" />
      <use
         xlink:href="#x4"
         id="use41"
         x="0"
         y="0"
         width="100%"
         height="100%" />
      <use
         xlink:href="#s6"
         y="0.21600001"
         id="use43"
         x="0"
         width="100%"
         height="100%" />
    </g>
    <rect
       id="stripe"
       width="1300"
       height="50"
       x="0"
       y="0"
       style="fill:#b22234" />
    <clipPath
       id="t">
      <path
         d="m 30,15 h 30 v 15 z m 0,0 V 30 H 0 Z m 0,0 H 0 V 0 Z m 0,0 V 0 h 30 z"
         id="path2"
         inkscape:connector-curvature="0" />
    </clipPath>
    <clipPath
       id="t-8">
      <path
         d="m 30,15 h 30 v 15 z m 0,0 V 30 H 0 Z m 0,0 H 0 V 0 Z m 0,0 V 0 h 30 z"
         id="path2-0"
         inkscape:connector-curvature="0" />
    </clipPath>
    <clipPath
       clipPathUnits="userSpaceOnUse"
       id="clipPath4685">
      <path
         style="fill:#00247d;fill-opacity:1;stroke:none;stroke-width:1px;stroke-linecap:butt;stroke-linejoin:miter;stroke-opacity:1"
         d="M 3.2351033e-7,192 256,63.999996 V 192 Z"
         id="path4687"
         inkscape:connector-curvature="0" />
    </clipPath>
  </defs>
  <rect
     width="256"
     height="128"
     id="rect49"
     x="3.2351036e-07"
     y="63.999996"
     style="fill:#ffffff;stroke-width:0.19692306" />
  <use
     xlink:href="#stripe"
     id="use51"
     x="0"
     y="0"
     width="100%"
     height="100%"
     transform="matrix(0.19692308,0,0,0.19692308,0,64)" />
  <use
     xlink:href="#stripe"
     y="100"
     id="use53"
     x="0"
     width="100%"
     height="100%"
     transform="matrix(0.19692308,0,0,0.19692308,0,64)" />
  <use
     xlink:href="#stripe"
     y="200"
     id="use55"
     x="0"
     width="100%"
     height="100%"
     transform="matrix(0.19692308,0,0,0.19692308,0,64)" />
  <use
     xlink:href="#stripe"
     y="300"
     id="use57"
     x="0"
     width="100%"
     height="100%"
     transform="matrix(0.19692308,0,0,0.19692308,0,64)" />
  <use
     xlink:href="#stripe"
     y="400"
     id="use59"
     x="0"
     width="100%"
     height="100%"
     transform="matrix(0.19692308,0,0,0.19692308,0,64)" />
  <use
     xlink:href="#stripe"
     y="500"
     id="use61"
     x="0"
     width="100%"
     height="100%"
     transform="matrix(0.19692308,0,0,0.19692308,0,64)" />
  <use
     xlink:href="#stripe"
     y="600"
     id="use63"
     x="0"
     width="100%"
     height="100%"
     transform="matrix(0.19692308,0,0,0.19692308,0,64)" />
  <rect
     width="97.279999"
     height="68.92308"
     id="rect65"
     x="3.2351036e-07"
     y="63.999996"
     style="fill:#3c3b6e;stroke-width:0.19692306" />
  <use
     xlink:href="#u"
     transform="matrix(127.99999,0,0,127.99999,48.639999,98.461538)"
     id="use67"
     x="0"
     y="0"
     width="100%"
     height="100%" />
  <g
     id="g4675"
     clip-path="url(#clipPath4685)">
    <path
       style="fill:#00247d;stroke-width:4.26666641"
       inkscape:connector-curvature="0"
       id="path5"
       d="M 2.5e-6,64 V 192 H 256 V 64 Z" />
    <path
       style="display:inline;fill:none;fill-opacity:1;stroke:#ffffff;stroke-width:25.59985161;stroke-miterlimit:4;stroke-dasharray:none;stroke-opacity:1"
       inkscape:connector-curvature="0"
       id="path7"
       d="M 2.5e-6,64 256,192 M 256,64 2.5e-6,192" />
    <path
       transform="matrix(4.2666666,0,0,4.2666666,2.5e-6,64)"
       style="display:inline;stroke:#cf142b;stroke-width:4"
       inkscape:connector-curvature="0"
       id="path9"
       clip-path="url(#t-8)"
       d="M 0,0 60,30 M 60,0 0,30" />
    <path
       style="display:inline;stroke:#ffffff;stroke-width:42.66666794"
       inkscape:connector-curvature="0"
       id="path11"
       d="M 128,64 V 192 M 2.5e-6,128 H 256" />
    <path
       style="display:inline;stroke:#cf142b;stroke-width:25.59999847"
       inkscape:connector-curvature="0"
       id="path13"
       d="M 128,64 V 192 M 2.5e-6,128 H 256" />
  </g>
</svg>
